name C:\Users\u0101727\Documents\MyRepositories\upper-imu-dc\OpenSim\subject0\MA\ResultsMA\grid_4nodes_9dim\angles_20.mot
datacolumns 10
datarows 52
range 2075.01000000 2075.52000000
endheader 
time	clav_prot	clav_elev	scapula_abduction	scapula_elevation	scapula_upward_rot	scapula_winging	plane_elv	shoulder_elv	axial_rot	
       2075.01000000	        -50.00000000	         20.00000000	        -40.00000000	          3.33333333	         60.00000000	          0.00000000	         30.00000000	        -10.00000000	         90.00000000	
       2075.02000000	        -38.33333333	         20.00000000	        -40.00000000	          3.33333333	         60.00000000	          0.00000000	         30.00000000	        -10.00000000	         90.00000000	
       2075.03000000	        -26.66666667	         20.00000000	        -40.00000000	          3.33333333	         60.00000000	          0.00000000	         30.00000000	        -10.00000000	         90.00000000	
       2075.04000000	        -15.00000000	         20.00000000	        -40.00000000	          3.33333333	         60.00000000	          0.00000000	         30.00000000	        -10.00000000	         90.00000000	
       2075.05000000	        -50.00000000	        -10.00000000	        -21.66666667	          3.33333333	         60.00000000	          0.00000000	         30.00000000	        -10.00000000	         90.00000000	
       2075.06000000	        -38.33333333	        -10.00000000	        -21.66666667	          3.33333333	         60.00000000	          0.00000000	         30.00000000	        -10.00000000	         90.00000000	
       2075.07000000	        -26.66666667	        -10.00000000	        -21.66666667	          3.33333333	         60.00000000	          0.00000000	         30.00000000	        -10.00000000	         90.00000000	
       2075.08000000	        -15.00000000	        -10.00000000	        -21.66666667	          3.33333333	         60.00000000	          0.00000000	         30.00000000	        -10.00000000	         90.00000000	
       2075.09000000	        -50.00000000	          0.00000000	        -21.66666667	          3.33333333	         60.00000000	          0.00000000	         30.00000000	        -10.00000000	         90.00000000	
       2075.10000000	        -38.33333333	          0.00000000	        -21.66666667	          3.33333333	         60.00000000	          0.00000000	         30.00000000	        -10.00000000	         90.00000000	
       2075.11000000	        -26.66666667	          0.00000000	        -21.66666667	          3.33333333	         60.00000000	          0.00000000	         30.00000000	        -10.00000000	         90.00000000	
       2075.12000000	        -15.00000000	          0.00000000	        -21.66666667	          3.33333333	         60.00000000	          0.00000000	         30.00000000	        -10.00000000	         90.00000000	
       2075.13000000	        -50.00000000	         10.00000000	        -21.66666667	          3.33333333	         60.00000000	          0.00000000	         30.00000000	        -10.00000000	         90.00000000	
       2075.14000000	        -38.33333333	         10.00000000	        -21.66666667	          3.33333333	         60.00000000	          0.00000000	         30.00000000	        -10.00000000	         90.00000000	
       2075.15000000	        -26.66666667	         10.00000000	        -21.66666667	          3.33333333	         60.00000000	          0.00000000	         30.00000000	        -10.00000000	         90.00000000	
       2075.16000000	        -15.00000000	         10.00000000	        -21.66666667	          3.33333333	         60.00000000	          0.00000000	         30.00000000	        -10.00000000	         90.00000000	
       2075.17000000	        -50.00000000	         20.00000000	        -21.66666667	          3.33333333	         60.00000000	          0.00000000	         30.00000000	        -10.00000000	         90.00000000	
       2075.18000000	        -38.33333333	         20.00000000	        -21.66666667	          3.33333333	         60.00000000	          0.00000000	         30.00000000	        -10.00000000	         90.00000000	
       2075.19000000	        -26.66666667	         20.00000000	        -21.66666667	          3.33333333	         60.00000000	          0.00000000	         30.00000000	        -10.00000000	         90.00000000	
       2075.20000000	        -15.00000000	         20.00000000	        -21.66666667	          3.33333333	         60.00000000	          0.00000000	         30.00000000	        -10.00000000	         90.00000000	
       2075.21000000	        -50.00000000	        -10.00000000	         -3.33333333	          3.33333333	         60.00000000	          0.00000000	         30.00000000	        -10.00000000	         90.00000000	
       2075.22000000	        -38.33333333	        -10.00000000	         -3.33333333	          3.33333333	         60.00000000	          0.00000000	         30.00000000	        -10.00000000	         90.00000000	
       2075.23000000	        -26.66666667	        -10.00000000	         -3.33333333	          3.33333333	         60.00000000	          0.00000000	         30.00000000	        -10.00000000	         90.00000000	
       2075.24000000	        -15.00000000	        -10.00000000	         -3.33333333	          3.33333333	         60.00000000	          0.00000000	         30.00000000	        -10.00000000	         90.00000000	
       2075.25000000	        -50.00000000	          0.00000000	         -3.33333333	          3.33333333	         60.00000000	          0.00000000	         30.00000000	        -10.00000000	         90.00000000	
       2075.26000000	        -38.33333333	          0.00000000	         -3.33333333	          3.33333333	         60.00000000	          0.00000000	         30.00000000	        -10.00000000	         90.00000000	
       2075.27000000	        -26.66666667	          0.00000000	         -3.33333333	          3.33333333	         60.00000000	          0.00000000	         30.00000000	        -10.00000000	         90.00000000	
       2075.28000000	        -15.00000000	          0.00000000	         -3.33333333	          3.33333333	         60.00000000	          0.00000000	         30.00000000	        -10.00000000	         90.00000000	
       2075.29000000	        -50.00000000	         10.00000000	         -3.33333333	          3.33333333	         60.00000000	          0.00000000	         30.00000000	        -10.00000000	         90.00000000	
       2075.30000000	        -38.33333333	         10.00000000	         -3.33333333	          3.33333333	         60.00000000	          0.00000000	         30.00000000	        -10.00000000	         90.00000000	
       2075.31000000	        -26.66666667	         10.00000000	         -3.33333333	          3.33333333	         60.00000000	          0.00000000	         30.00000000	        -10.00000000	         90.00000000	
       2075.32000000	        -15.00000000	         10.00000000	         -3.33333333	          3.33333333	         60.00000000	          0.00000000	         30.00000000	        -10.00000000	         90.00000000	
       2075.33000000	        -50.00000000	         20.00000000	         -3.33333333	          3.33333333	         60.00000000	          0.00000000	         30.00000000	        -10.00000000	         90.00000000	
       2075.34000000	        -38.33333333	         20.00000000	         -3.33333333	          3.33333333	         60.00000000	          0.00000000	         30.00000000	        -10.00000000	         90.00000000	
       2075.35000000	        -26.66666667	         20.00000000	         -3.33333333	          3.33333333	         60.00000000	          0.00000000	         30.00000000	        -10.00000000	         90.00000000	
       2075.36000000	        -15.00000000	         20.00000000	         -3.33333333	          3.33333333	         60.00000000	          0.00000000	         30.00000000	        -10.00000000	         90.00000000	
       2075.37000000	        -50.00000000	        -10.00000000	         15.00000000	          3.33333333	         60.00000000	          0.00000000	         30.00000000	        -10.00000000	         90.00000000	
       2075.38000000	        -38.33333333	        -10.00000000	         15.00000000	          3.33333333	         60.00000000	          0.00000000	         30.00000000	        -10.00000000	         90.00000000	
       2075.39000000	        -26.66666667	        -10.00000000	         15.00000000	          3.33333333	         60.00000000	          0.00000000	         30.00000000	        -10.00000000	         90.00000000	
       2075.40000000	        -15.00000000	        -10.00000000	         15.00000000	          3.33333333	         60.00000000	          0.00000000	         30.00000000	        -10.00000000	         90.00000000	
       2075.41000000	        -50.00000000	          0.00000000	         15.00000000	          3.33333333	         60.00000000	          0.00000000	         30.00000000	        -10.00000000	         90.00000000	
       2075.42000000	        -38.33333333	          0.00000000	         15.00000000	          3.33333333	         60.00000000	          0.00000000	         30.00000000	        -10.00000000	         90.00000000	
       2075.43000000	        -26.66666667	          0.00000000	         15.00000000	          3.33333333	         60.00000000	          0.00000000	         30.00000000	        -10.00000000	         90.00000000	
       2075.44000000	        -15.00000000	          0.00000000	         15.00000000	          3.33333333	         60.00000000	          0.00000000	         30.00000000	        -10.00000000	         90.00000000	
       2075.45000000	        -50.00000000	         10.00000000	         15.00000000	          3.33333333	         60.00000000	          0.00000000	         30.00000000	        -10.00000000	         90.00000000	
       2075.46000000	        -38.33333333	         10.00000000	         15.00000000	          3.33333333	         60.00000000	          0.00000000	         30.00000000	        -10.00000000	         90.00000000	
       2075.47000000	        -26.66666667	         10.00000000	         15.00000000	          3.33333333	         60.00000000	          0.00000000	         30.00000000	        -10.00000000	         90.00000000	
       2075.48000000	        -15.00000000	         10.00000000	         15.00000000	          3.33333333	         60.00000000	          0.00000000	         30.00000000	        -10.00000000	         90.00000000	
       2075.49000000	        -50.00000000	         20.00000000	         15.00000000	          3.33333333	         60.00000000	          0.00000000	         30.00000000	        -10.00000000	         90.00000000	
       2075.50000000	        -38.33333333	         20.00000000	         15.00000000	          3.33333333	         60.00000000	          0.00000000	         30.00000000	        -10.00000000	         90.00000000	
       2075.51000000	        -26.66666667	         20.00000000	         15.00000000	          3.33333333	         60.00000000	          0.00000000	         30.00000000	        -10.00000000	         90.00000000	
       2075.52000000	        -15.00000000	         20.00000000	         15.00000000	          3.33333333	         60.00000000	          0.00000000	         30.00000000	        -10.00000000	         90.00000000	
